<svg width="1111" height="762" viewBox="0 0 1111 762" fill="none" xmlns="http://www.w3.org/2000/svg">
<g filter="url(#filter0_d_117_255)">
<path d="M10 281.917V47.4399C10 47.0248 10.1382 46.6216 10.3927 46.2938L39.5685 8.72249C39.9225 8.26667 40.4672 8 41.0443 8H576.103C576.721 8 577.298 8.30499 577.646 8.81489L603.393 46.5236C603.741 47.0335 604.319 47.3384 604.936 47.3384H1075.22C1075.84 47.3384 1076.42 47.6444 1076.77 48.1557L1095.51 75.6929C1095.72 76.0029 1095.83 76.3692 1095.83 76.7441V172.102C1095.83 172.447 1095.74 172.784 1095.56 173.078L1076.49 204.243C1076.31 204.537 1076.21 204.874 1076.21 205.219V545.516C1076.21 546.043 1076.44 546.546 1076.83 546.9L1096.39 564.649C1096.78 565.003 1097 565.505 1097 566.032V744.131C1097 745.163 1096.16 746 1095.13 746H11.8685C10.8366 746 10 745.163 10 744.131V489.411C10 488.788 10.3104 488.206 10.8277 487.859L39.3019 468.761C39.8192 468.414 40.1296 467.832 40.1296 467.209V307.185C40.1296 306.609 39.8634 306.065 39.4084 305.711L10.7211 283.391C10.2661 283.037 10 282.493 10 281.917Z" fill="#202128"/>
<path d="M10 281.917V47.4399C10 47.0248 10.1382 46.6216 10.3927 46.2938L39.5685 8.72249C39.9225 8.26667 40.4672 8 41.0443 8H576.103C576.721 8 577.298 8.30499 577.646 8.81489L603.393 46.5236C603.741 47.0335 604.319 47.3384 604.936 47.3384H1075.22C1075.84 47.3384 1076.42 47.6444 1076.77 48.1557L1095.51 75.6929C1095.72 76.0029 1095.83 76.3692 1095.83 76.7441V172.102C1095.83 172.447 1095.74 172.784 1095.56 173.078L1076.49 204.243C1076.31 204.537 1076.21 204.874 1076.21 205.219V545.516C1076.21 546.043 1076.44 546.546 1076.83 546.9L1096.39 564.649C1096.78 565.003 1097 565.505 1097 566.032V744.131C1097 745.163 1096.16 746 1095.13 746H11.8685C10.8366 746 10 745.163 10 744.131V489.411C10 488.788 10.3104 488.206 10.8277 487.859L39.3019 468.761C39.8192 468.414 40.1296 467.832 40.1296 467.209V307.185C40.1296 306.609 39.8634 306.065 39.4084 305.711L10.7211 283.391C10.2661 283.037 10 282.493 10 281.917Z" stroke="#B860FF"/>
</g>
<defs>
<filter id="filter0_d_117_255" x="0.5" y="0.5" width="1110" height="761" filterUnits="userSpaceOnUse" color-interpolation-filters="sRGB">
<feFlood flood-opacity="0" result="BackgroundImageFix"/>
<feColorMatrix in="SourceAlpha" type="matrix" values="0 0 0 0 0 0 0 0 0 0 0 0 0 0 0 0 0 0 127 0" result="hardAlpha"/>
<feOffset dx="2" dy="4"/>
<feGaussianBlur stdDeviation="5.5"/>
<feComposite in2="hardAlpha" operator="out"/>
<feColorMatrix type="matrix" values="0 0 0 0 0.796078 0 0 0 0 0.592157 0 0 0 0 0.956863 0 0 0 0.6 0"/>
<feBlend mode="normal" in2="BackgroundImageFix" result="effect1_dropShadow_117_255"/>
<feBlend mode="normal" in="SourceGraphic" in2="effect1_dropShadow_117_255" result="shape"/>
</filter>
</defs>
</svg>
