<svg width="303" height="98" viewBox="0 0 303 98" fill="none" xmlns="http://www.w3.org/2000/svg">
<g filter="url(#filter0_d_105_497)">
<path d="M212.893 13H29.0086C27.5381 13 26.1188 13.54 25.0202 14.5176L15.0115 23.4233C13.732 24.5619 13 26.193 13 27.9058V69.9003C13 71.8123 13.9113 73.6098 15.4536 74.74L25.1423 81.8397C26.171 82.5936 27.4133 83 28.6887 83H271.682C272.908 83 274.105 82.624 275.112 81.9228L285.426 74.7355C287.039 73.612 287.999 71.7702 287.996 69.8051L287.943 27.9838C287.941 26.2259 287.168 24.5574 285.828 23.4192L275.246 14.4277C274.161 13.506 272.784 13 271.361 13H241.284H212.893Z" fill="#EADCF6"/>
</g>
<g filter="url(#filter1_d_105_497)">
<path d="M25.5449 9.5H274.806C276.185 9.50001 277.514 10.0183 278.529 10.9521L289.664 21.1973C290.794 22.2372 291.439 23.7024 291.44 25.2383L291.496 72.7998C291.498 74.5274 290.689 76.1556 289.31 77.1963L278.449 85.3906C277.495 86.1105 276.332 86.4999 275.137 86.5H25.2158C23.9747 86.4999 22.7701 86.08 21.7979 85.3086L11.5811 77.2021C10.2664 76.1588 9.5 74.5719 9.5 72.8936V25.1602C9.5 23.6661 10.1077 22.2359 11.1836 21.1992L21.7295 11.0391C22.7544 10.0518 24.1219 9.50005 25.5449 9.5Z" stroke="url(#paint0_linear_105_497)" shape-rendering="crispEdges"/>
</g>
<defs>
<filter id="filter0_d_105_497" x="4" y="4" width="294.996" height="90" filterUnits="userSpaceOnUse" color-interpolation-filters="sRGB">
<feFlood flood-opacity="0" result="BackgroundImageFix"/>
<feColorMatrix in="SourceAlpha" type="matrix" values="0 0 0 0 0 0 0 0 0 0 0 0 0 0 0 0 0 0 127 0" result="hardAlpha"/>
<feOffset dx="1" dy="1"/>
<feGaussianBlur stdDeviation="5"/>
<feComposite in2="hardAlpha" operator="out"/>
<feColorMatrix type="matrix" values="0 0 0 0 0.9124 0 0 0 0 0.804268 0 0 0 0 1 0 0 0 0.2 0"/>
<feBlend mode="normal" in2="BackgroundImageFix" result="effect1_dropShadow_105_497"/>
<feBlend mode="normal" in="SourceGraphic" in2="effect1_dropShadow_105_497" result="shape"/>
</filter>
<filter id="filter1_d_105_497" x="0" y="0" width="302.997" height="98" filterUnits="userSpaceOnUse" color-interpolation-filters="sRGB">
<feFlood flood-opacity="0" result="BackgroundImageFix"/>
<feColorMatrix in="SourceAlpha" type="matrix" values="0 0 0 0 0 0 0 0 0 0 0 0 0 0 0 0 0 0 127 0" result="hardAlpha"/>
<feOffset dx="1" dy="1"/>
<feGaussianBlur stdDeviation="5"/>
<feComposite in2="hardAlpha" operator="out"/>
<feColorMatrix type="matrix" values="0 0 0 0 0.9124 0 0 0 0 0.804268 0 0 0 0 1 0 0 0 0.2 0"/>
<feBlend mode="normal" in2="BackgroundImageFix" result="effect1_dropShadow_105_497"/>
<feBlend mode="normal" in="SourceGraphic" in2="effect1_dropShadow_105_497" result="shape"/>
</filter>
<linearGradient id="paint0_linear_105_497" x1="165" y1="19" x2="165" y2="87" gradientUnits="userSpaceOnUse">
<stop stop-color="#CC8CFF"/>
<stop offset="1" stop-color="#D7A6FF"/>
</linearGradient>
</defs>
</svg>
