<svg width="14" height="9" viewBox="0 0 14 9" fill="none" xmlns="http://www.w3.org/2000/svg">
<path d="M7.96853 8.09V6.872L12.3085 4.744C12.4859 4.66 12.6492 4.59 12.7985 4.534C12.9572 4.46867 13.0739 4.42667 13.1485 4.408C13.0645 4.38933 12.9432 4.352 12.7845 4.296C12.6259 4.23067 12.4672 4.156 12.3085 4.072L7.96853 1.93V0.67L13.9885 3.68V5.08L7.96853 8.09ZM0.814531 8.104V6.886L5.15453 4.758C5.33186 4.674 5.49986 4.604 5.65853 4.548C5.80786 4.48267 5.91986 4.44067 5.99453 4.422C5.91053 4.40333 5.7892 4.366 5.63053 4.31C5.47186 4.24467 5.3132 4.17 5.15453 4.086L0.814531 1.944V0.683999L6.83453 3.694V5.094L0.814531 8.104Z" fill="#16171C"/>
</svg>
