<svg width="54" height="54" viewBox="0 0 54 54" fill="none" xmlns="http://www.w3.org/2000/svg">
<path d="M10.5519 0H32.1425H43.4482C44.0316 0 44.586 0.254771 44.9659 0.697532L53.5178 10.6629C53.8289 11.0255 54 11.4876 54 11.9654V43.9854C54 44.6231 53.6959 45.2226 53.1813 45.5993L42.2314 53.6139C41.8886 53.8648 41.4749 54 41.0501 54H12.8799C12.4532 54 12.0377 53.8635 11.6941 53.6105L0.814152 45.5995C0.302231 45.2225 -3.8147e-06 44.6247 -3.8147e-06 43.989V11.6852C-3.8147e-06 11.1976 0.178089 10.7269 0.500793 10.3614L9.05268 0.676223C9.43233 0.246265 9.9783 0 10.5519 0Z" fill="#16171C"/>
</svg>
