<svg width="1921" height="70" viewBox="0 0 1921 70" fill="none" xmlns="http://www.w3.org/2000/svg">
<line x1="0.5" y1="69.5" x2="1920.5" y2="69.4998" stroke="#323339"/>
<path d="M85 70L85 22" stroke="#323339"/>
<path d="M1390 70L1390 22" stroke="#323339"/>
<path d="M84.502 1L84.502 3.58579C84.502 3.851 84.6073 4.10536 84.7948 4.29289L86.2091 5.70711C86.3966 5.89464 86.651 6 86.9162 6L89.502 6" stroke="white"/>
<path d="M80.5 6H83.0858C83.351 6 83.6054 6.10536 83.7929 6.29289L85.2071 7.70711C85.3946 7.89464 85.5 8.149 85.5 8.41421V11" stroke="white"/>
<path d="M1389.5 1L1389.5 3.58579C1389.5 3.851 1389.61 4.10536 1389.79 4.29289L1391.21 5.70711C1391.4 5.89464 1391.65 6 1391.92 6L1394.5 6" stroke="white"/>
<path d="M1385.5 6H1388.09C1388.35 6 1388.61 6.10536 1388.79 6.29289L1390.21 7.70711C1390.39 7.89464 1390.5 8.149 1390.5 8.41421V11" stroke="white"/>
</svg>
