<svg width="48" height="48" viewBox="0 0 48 48" fill="none" xmlns="http://www.w3.org/2000/svg">
<path d="M6.8013 1.42346L0.940355 8.38333C0.333043 9.10451 0 10.017 0 10.9599V37.9882C0 39.2539 0.599002 40.4449 1.6151 41.1995L9.70996 47.2113C10.3996 47.7234 11.2358 48 12.0949 48H35.6993C36.5446 48 37.3683 47.7322 38.052 47.2349L46.3527 41.198C47.3877 40.4453 48 39.2428 48 37.9631V11.9161C48 10.9999 47.6855 10.1115 47.109 9.39933L40.7007 1.48321C39.9412 0.545049 38.7987 0 37.5917 0H9.86094C8.68104 0 7.56132 0.520932 6.8013 1.42346Z" fill="#D1C6DA"/>
</svg>
