<svg width="20" height="20" viewBox="0 0 20 20" fill="none" xmlns="http://www.w3.org/2000/svg">
<path d="M5.27587 6.66667H14.725C14.9653 6.66664 15.2028 6.71858 15.4212 6.81892C15.6395 6.91926 15.8336 7.06563 15.9901 7.248C16.1466 7.43037 16.2618 7.64443 16.3278 7.87549C16.3938 8.10655 16.4091 8.34915 16.3725 8.58667L15.3267 15.38C15.2359 15.9704 14.9367 16.5087 14.4834 16.8976C14.03 17.2865 13.4524 17.5002 12.855 17.5H7.14504C6.54787 17.5 5.97044 17.2862 5.51723 16.8973C5.06402 16.5085 4.76498 15.9702 4.67421 15.38L3.62837 8.58667C3.59185 8.34915 3.60712 8.10655 3.67313 7.87549C3.73914 7.64443 3.85434 7.43037 4.01083 7.248C4.16732 7.06563 4.36139 6.91926 4.57974 6.81892C4.7981 6.71858 5.03557 6.66664 5.27587 6.66667Z" stroke="#D8EBEE" stroke-width="1.6" stroke-linecap="round" stroke-linejoin="round"/>
<path d="M7.5 9.16667V5C7.5 4.33696 7.76339 3.70107 8.23223 3.23223C8.70107 2.76339 9.33696 2.5 10 2.5C10.663 2.5 11.2989 2.76339 11.7678 3.23223C12.2366 3.70107 12.5 4.33696 12.5 5V9.16667" stroke="#D8EBEE" stroke-width="1.6" stroke-linecap="round" stroke-linejoin="round"/>
</svg>
