<svg width="36" height="12" viewBox="0 0 36 12" fill="none" xmlns="http://www.w3.org/2000/svg">
<path d="M5.50195 1L5.50195 3.58579C5.50195 3.851 5.60731 4.10536 5.79485 4.29289L7.20906 5.70711C7.3966 5.89464 7.65095 6 7.91617 6L10.502 6" stroke="white"/>
<path d="M1.5 6H4.08579C4.351 6 4.60536 6.10536 4.79289 6.29289L6.20711 7.70711C6.39464 7.89464 6.5 8.149 6.5 8.41421V11" stroke="white"/>
<path d="M17.502 1L17.502 3.58579C17.502 3.851 17.6073 4.10536 17.7948 4.29289L19.2091 5.70711C19.3966 5.89464 19.651 6 19.9162 6L22.502 6" stroke="white"/>
<path d="M13.5 6H16.0858C16.351 6 16.6054 6.10536 16.7929 6.29289L18.2071 7.70711C18.3946 7.89464 18.5 8.149 18.5 8.41421V11" stroke="white"/>
<path d="M29.502 1L29.502 3.58579C29.502 3.851 29.6073 4.10536 29.7948 4.29289L31.2091 5.70711C31.3966 5.89464 31.651 6 31.9162 6L34.502 6" stroke="white"/>
<path d="M25.5 6H28.0858C28.351 6 28.6054 6.10536 28.7929 6.29289L30.2071 7.70711C30.3946 7.89464 30.5 8.149 30.5 8.41421V11" stroke="white"/>
</svg>
