<svg width="70" height="68" viewBox="0 0 70 68" fill="none" xmlns="http://www.w3.org/2000/svg">
<g filter="url(#filter0_d_102_480)">
<path d="M33.4672 33.5285C33.8109 33.5199 33.9844 33.1105 33.7515 32.8576L24.4348 22.7419C24.1148 22.3945 23.5626 22.7913 23.7899 23.2054L29.3933 33.4137C29.4653 33.5448 29.6044 33.6248 29.7539 33.6211L33.4672 33.5285Z" fill="#BA65FF"/>
<path d="M37.5339 34.4714C37.1902 34.48 37.0168 34.8894 37.2497 35.1422L46.5668 45.2584C46.8868 45.6059 47.4389 45.209 47.2117 44.795L41.608 34.5855C41.5361 34.4544 41.3969 34.3744 41.2473 34.3781L37.5339 34.4714Z" fill="#BA65FF"/>
<path d="M35.956 31.8838C35.9643 32.2341 36.3871 32.4053 36.6367 32.1593L46.4253 22.5113C46.7609 22.1805 46.3483 21.6429 45.942 21.8815L36.0631 27.6841C35.9379 27.7577 35.8624 27.8933 35.8658 28.0384L35.956 31.8838Z" fill="#BA65FF"/>
<path d="M35.0451 36.1165C35.0369 35.7661 34.6141 35.5949 34.3644 35.8409L24.5762 45.4884C24.2406 45.8192 24.6533 46.3569 25.0596 46.1182L34.9374 40.3159C35.0626 40.2423 35.1381 40.1068 35.1347 39.9617L35.0451 36.1165Z" fill="#BA65FF"/>
</g>
<defs>
<filter id="filter0_d_102_480" x="14.7366" y="14.8223" width="45.5286" height="46.3552" filterUnits="userSpaceOnUse" color-interpolation-filters="sRGB">
<feFlood flood-opacity="0" result="BackgroundImageFix"/>
<feColorMatrix in="SourceAlpha" type="matrix" values="0 0 0 0 0 0 0 0 0 0 0 0 0 0 0 0 0 0 127 0" result="hardAlpha"/>
<feOffset dx="2" dy="4"/>
<feGaussianBlur stdDeviation="5.5"/>
<feComposite in2="hardAlpha" operator="out"/>
<feColorMatrix type="matrix" values="0 0 0 0 0.794236 0 0 0 0 0.593989 0 0 0 0 0.956461 0 0 0 0.6 0"/>
<feBlend mode="normal" in2="BackgroundImageFix" result="effect1_dropShadow_102_480"/>
<feBlend mode="normal" in="SourceGraphic" in2="effect1_dropShadow_102_480" result="shape"/>
</filter>
</defs>
</svg>
