<svg width="70" height="68" viewBox="0 0 70 68" fill="none" xmlns="http://www.w3.org/2000/svg">
<g filter="url(#filter0_d_98_464)">
<path d="M32.293 37.3945C32.9382 36.8103 33.9461 37.2636 33.9727 38.0479L34.0117 39.2148L24.5342 44.417L32.293 37.3945ZM35.9385 38.0479C35.9651 37.2636 36.972 36.8105 37.6172 37.3945L45.2412 44.2949L35.8994 39.167L35.9385 38.0479ZM46.2217 43.4746L38.9951 36.0156C38.4424 35.4451 38.8104 34.4599 39.6943 34.4316L39.6934 34.4307L40.8867 34.3936L46.2217 43.4746ZM30.2168 34.4326C31.0997 34.4604 31.4678 35.4458 30.915 36.0166L23.9131 43.2422L29.1084 34.3975L30.2168 34.4326ZM40.9268 32.5381L39.6934 32.499L39.5332 32.4834C38.7673 32.35 38.4765 31.451 38.9951 30.916L46.3252 23.3486L40.9268 32.5381ZM30.915 30.916L30.916 30.917L31.0088 31.0283C31.421 31.6066 31.0456 32.4735 30.2168 32.5L29.0713 32.5361L23.8135 23.5859L30.915 30.916ZM34.0098 27.7812L33.9727 28.8838C33.948 29.6192 33.0605 30.0636 32.418 29.6348L32.293 29.5371L24.7246 22.6855L34.0098 27.7812ZM37.6172 29.5361C37.0127 30.0837 36.0886 29.7208 35.9531 29.0264L35.9375 28.8828L35.9014 27.8281L45.0469 22.8096L37.6172 29.5361Z" fill="#BA65FF"/>
</g>
<defs>
<filter id="filter0_d_98_464" x="14.8135" y="15.6855" width="44.5117" height="43.7314" filterUnits="userSpaceOnUse" color-interpolation-filters="sRGB">
<feFlood flood-opacity="0" result="BackgroundImageFix"/>
<feColorMatrix in="SourceAlpha" type="matrix" values="0 0 0 0 0 0 0 0 0 0 0 0 0 0 0 0 0 0 127 0" result="hardAlpha"/>
<feOffset dx="2" dy="4"/>
<feGaussianBlur stdDeviation="5.5"/>
<feComposite in2="hardAlpha" operator="out"/>
<feColorMatrix type="matrix" values="0 0 0 0 0.794236 0 0 0 0 0.593989 0 0 0 0 0.956461 0 0 0 0.6 0"/>
<feBlend mode="normal" in2="BackgroundImageFix" result="effect1_dropShadow_98_464"/>
<feBlend mode="normal" in="SourceGraphic" in2="effect1_dropShadow_98_464" result="shape"/>
</filter>
</defs>
</svg>
