<svg width="411" height="492" viewBox="0 0 411 492" fill="none" xmlns="http://www.w3.org/2000/svg">
<path d="M169.821 15.8119H241L257.5 36L64.3079 337H40.9443L4.01466 300.881V211.337L20.5953 194.03V129.752L1 113.951V15.8119L18.3343 1H56.7713L72.5982 15.8119H169.821Z" stroke="#D8EBEE" stroke-opacity="0.32" stroke-linejoin="round" stroke-dasharray="1 3"/>
<path d="M405 35C408.314 35 411 37.6863 411 41V414C411 417.314 408.314 420 405 420H250.333C247.104 420 244.19 421.942 242.948 424.923L216.538 488.308C215.606 490.543 213.422 492 211 492H51C47.6863 492 45 489.314 45 486V41C45 37.6863 47.6863 35 51 35H405Z" fill="#202128"/>
<path d="M23.502 37L23.502 39.5858C23.502 39.851 23.6073 40.1054 23.7948 40.2929L25.2091 41.7071C25.3966 41.8946 25.651 42 25.9162 42L28.502 42" stroke="#D8EBEE"/>
<path d="M19.5 42H22.0858C22.351 42 22.6054 42.1054 22.7929 42.2929L24.2071 43.7071C24.3946 43.8946 24.5 44.149 24.5 44.4142V47" stroke="#D8EBEE"/>
</svg>
