<svg width="81" height="19" viewBox="0 0 81 19" fill="none" xmlns="http://www.w3.org/2000/svg">
<path d="M24.948 3.582H9.244C7.97867 3.582 6.81733 3.93733 5.76 4.648C4.72 5.34133 3.95733 6.25133 3.472 7.378C3.42 7.482 3.368 7.59467 3.316 7.716C3.056 8.42667 2.926 9.15467 2.926 9.9C2.926 10.2813 2.96067 10.654 3.03 11.018L7.84 8.236C8.44667 7.88933 9.088 7.716 9.764 7.716H18.786C19.8433 7.716 20.8227 7.96733 21.724 8.47C22.6427 8.97267 23.3793 9.64867 23.934 10.498C24.4887 11.3473 24.818 12.266 24.922 13.254C24.9393 13.462 24.948 13.9387 24.948 14.684V14.71L22.374 16.218L22.166 16.322L18.448 18.48C17.8413 18.8267 17.2 19 16.524 19H0.144V16.218H20.138C20.8313 16.218 21.4727 16.0447 22.062 15.698L22.166 15.646V13.878C22.166 12.9593 21.8367 12.1707 21.178 11.512C20.5193 10.836 19.722 10.498 18.786 10.498H6.15C5.45667 10.498 4.81533 10.6713 4.226 11.018L3.16 11.616L0.716 13.046C0.646667 12.89 0.586 12.734 0.534 12.578C0.43 12.2313 0.352 11.876 0.3 11.512C0.196 10.9747 0.144 10.4373 0.144 9.9C0.144 9.15467 0.230667 8.42667 0.404 7.716C0.733333 6.39867 1.32267 5.22 2.172 4.18C3.02133 3.12267 4.06133 2.29933 5.292 1.71C6.54 1.10333 7.85733 0.799999 9.244 0.799999H24.948V3.582ZM53.0315 6.962C53.0315 7.118 53.0315 7.28267 53.0315 7.456C52.9968 7.872 52.9188 8.27933 52.7975 8.678L52.6155 8.782L49.4435 10.628C49.6861 10.6973 49.9201 10.7927 50.1455 10.914C50.4748 11.07 50.7781 11.2607 51.0555 11.486C51.1595 11.5727 51.2548 11.6593 51.3415 11.746C52.4681 12.786 53.0315 14.0687 53.0315 15.594V19H50.2495V15.594C50.2495 14.97 50.0328 14.424 49.5995 13.956C49.1835 13.488 48.6721 13.2193 48.0655 13.15V13.124C47.9788 13.124 47.8921 13.124 47.8055 13.124H38.0035C37.3101 13.124 36.6688 13.2973 36.0795 13.644L32.9335 15.464C31.9108 16.0533 31.2955 16.92 31.0875 18.064C31.0355 18.3067 31.0095 18.5493 31.0095 18.792V19H28.2275V0.799999H46.8695C48.5681 0.799999 50.0155 1.40667 51.2115 2.62C52.4248 3.816 53.0315 5.26333 53.0315 6.962ZM46.8695 10.342C47.7188 10.342 48.4555 10.0647 49.0795 9.51C49.7208 8.95533 50.1021 8.27067 50.2235 7.456C50.2408 7.3 50.2495 7.13533 50.2495 6.962C50.2495 6.04333 49.9201 5.25467 49.2615 4.596C48.6028 3.92 47.8055 3.582 46.8695 3.582H31.0095V15.88L35.7935 13.124L39.7195 10.862C40.3088 10.5153 40.9415 10.342 41.6175 10.342H46.8695ZM59.5118 7.378C59.1478 8.17533 58.9658 9.016 58.9658 9.9V14.034L63.7498 11.304L67.6758 9.016C68.2651 8.68667 68.8978 8.522 69.5738 8.522H80.9878V11.304H65.9598C65.2664 11.304 64.6251 11.4687 64.0358 11.798L60.8898 13.618C59.8671 14.2247 59.2518 15.0913 59.0438 16.218V19H56.1838V9.9C56.1838 8.25333 56.5911 6.73667 57.4058 5.35C58.2204 3.946 59.3211 2.83667 60.7078 2.022C62.1118 1.20733 63.6371 0.799999 65.2838 0.799999H80.9878V3.582H65.2838C64.0184 3.582 62.8571 3.93733 61.7998 4.648C60.7598 5.34133 59.9971 6.25133 59.5118 7.378Z" fill="#EAE3F0"/>
</svg>
